<svg width="400" height="400" viewBox="0 0 400 400" fill="none" xmlns="http://www.w3.org/2000/svg">
<path d="M69.9695 166.172H70.3163C74.0861 166.168 77.7003 164.691 80.366 162.065C83.0316 159.44 84.5311 155.879 84.5353 152.166V147.383H126.846V146.7H83.8417V152.166C83.8376 155.639 82.4584 158.974 79.9974 161.461C77.5365 163.948 74.1877 165.392 70.6631 165.485V146.7H60.6057C59.2265 146.698 57.9043 146.158 56.929 145.197C55.9538 144.237 55.4052 142.934 55.4036 141.576V89.3076C55.4052 87.949 55.9538 86.6465 56.929 85.6858C57.9043 84.7252 59.2265 84.1848 60.6057 84.1832H193.086C194.465 84.1848 195.787 84.7252 196.762 85.6858C197.738 86.6465 198.286 87.949 198.288 89.3076V127.228H198.981V89.3076C198.98 87.7678 198.358 86.2917 197.253 85.2029C196.147 84.1142 194.649 83.5017 193.086 83.5H60.6057C59.0426 83.5017 57.544 84.1142 56.4388 85.2029C55.3335 86.2917 54.7118 87.7678 54.71 89.3076V141.576C54.7118 143.115 55.3335 144.592 56.4388 145.68C57.544 146.769 59.0426 147.381 60.6057 147.383H69.9695V166.172Z" fill="#CCCCCC"/>
<path d="M82.2746 100.362C82.3184 99.3162 82.7954 98.3266 83.6056 97.6007C84.4159 96.8749 85.4965 96.4691 86.6209 96.4685H167.07C168.225 96.4685 169.332 96.8955 170.149 97.6555C170.965 98.4155 171.424 99.4463 171.424 100.521C171.424 101.596 170.965 102.627 170.149 103.387C169.332 104.147 168.225 104.574 167.07 104.574H86.6209C85.4669 104.572 84.3605 104.145 83.5444 103.385C82.7284 102.625 82.2692 101.595 82.2676 100.521C82.2665 100.468 82.2688 100.415 82.2746 100.362Z" fill="#CCCCCC"/>
<path d="M82.2746 115.73C82.3184 114.475 82.7954 113.287 83.6056 112.416C84.4159 111.545 85.4965 111.058 86.6209 111.057H167.07C168.225 111.057 169.332 111.57 170.149 112.482C170.965 113.394 171.424 114.631 171.424 115.92C171.424 117.21 170.965 118.447 170.149 119.359C169.332 120.271 168.225 120.784 167.07 120.784H86.6209C85.4669 120.782 84.3605 120.269 83.5444 119.357C82.7284 118.446 82.2692 117.21 82.2676 115.92C82.2665 115.857 82.2688 115.793 82.2746 115.73Z" fill="#CCCCCC"/>
<path d="M83.8963 129.54C83.9388 128.494 84.4012 127.505 85.1867 126.779C85.9722 126.053 87.0198 125.647 88.11 125.647H166.103C166.722 125.647 167.333 125.777 167.893 126.03C168.453 126.282 168.949 126.649 169.345 127.106C169.518 127.308 169.672 127.525 169.804 127.754H132.509C131.166 127.756 129.879 128.268 128.929 129.18C127.98 130.092 127.446 131.328 127.444 132.617V133.752H88.11C86.9911 133.75 85.9185 133.323 85.1274 132.563C84.3362 131.804 83.8911 130.774 83.8895 129.699C83.8884 129.646 83.8907 129.593 83.8963 129.54Z" fill="#CCCCCC"/>
<path d="M353.67 316.609C353.48 316.76 353.291 316.906 353.097 317.049H305.238C304.881 316.906 304.526 316.759 304.173 316.609C299.12 314.463 294.418 311.606 290.215 308.129C287.424 305.823 284.857 303.441 282.995 301.209C280.399 298.094 278.007 294.7 276.895 290.832C275.785 286.965 276.117 282.532 278.596 279.324C279.364 278.338 280.308 277.495 281.382 276.835C281.561 276.725 281.741 276.619 281.926 276.52C285.011 274.9 288.609 274.478 291.999 275.338C296.793 276.547 300.777 279.921 303.62 283.879C306.463 287.834 308.308 292.378 310.126 296.87C311.972 288.851 317.56 281.669 325.109 278.017C332.655 274.365 342.031 274.409 349.417 278.365C351.741 279.617 353.841 281.23 355.633 283.141C355.811 283.328 355.985 283.52 356.156 283.714C359.759 287.784 362.013 292.996 362.198 298.372C362.281 301.842 361.557 305.287 360.08 308.445C358.603 311.604 356.411 314.395 353.67 316.609Z" fill="#F2F2F2"/>
<path d="M307.09 317.049H306.409C306.4 316.902 306.388 316.757 306.375 316.609C306.137 313.735 305.638 310.887 304.885 308.098C303.158 301.729 300.207 295.732 296.188 290.419C292.18 285.09 287.127 280.576 281.317 277.135C281.275 277.111 281.238 277.079 281.211 277.04C281.183 277 281.165 276.956 281.159 276.909C281.147 276.847 281.155 276.784 281.179 276.727C281.204 276.669 281.245 276.619 281.297 276.583C281.35 276.547 281.412 276.527 281.476 276.524C281.54 276.52 281.604 276.535 281.66 276.566C281.676 276.575 281.691 276.584 281.706 276.594C284.997 278.536 288.052 280.83 290.814 283.432C295.754 288.096 299.737 293.622 302.554 299.72C305.038 305.06 306.56 310.772 307.054 316.609C307.067 316.757 307.079 316.904 307.09 317.049Z" fill="white"/>
<path d="M355.494 283.647C355.489 283.649 355.483 283.651 355.478 283.651C354.985 283.739 354.49 283.832 353.999 283.931C349.972 284.742 346.029 285.915 342.222 287.436C338.425 288.955 334.772 290.8 331.307 292.95C327.838 295.099 324.566 297.54 321.529 300.246C318.492 302.948 315.706 305.91 313.204 309.095C311.334 311.482 309.634 313.992 308.116 316.608C308.03 316.753 307.947 316.901 307.864 317.049H307.092C307.173 316.901 307.256 316.753 307.342 316.608C309.179 313.403 311.285 310.354 313.639 307.492C316.241 304.325 319.127 301.39 322.26 298.724C325.374 296.073 328.716 293.691 332.248 291.605C335.795 289.51 339.525 287.726 343.393 286.276C347.146 284.869 351.021 283.797 354.971 283.073C355.082 283.053 355.19 283.033 355.3 283.014C355.721 282.939 355.901 283.561 355.494 283.647Z" fill="white"/>
<path d="M342.51 307.714C337.866 307.106 333.151 307.207 328.542 308.014C323.946 308.814 319.508 310.292 315.39 312.394C313.076 313.579 310.879 314.961 308.827 316.525C308.492 316.78 308.966 317.226 309.298 316.974C312.899 314.245 316.935 312.084 321.253 310.572C325.537 309.063 330.04 308.193 334.603 307.992C337.185 307.879 339.772 307.991 342.332 308.326C342.417 308.346 342.507 308.334 342.583 308.293C342.659 308.251 342.716 308.184 342.742 308.105C342.765 308.023 342.754 307.937 342.71 307.864C342.667 307.791 342.594 307.737 342.51 307.714Z" fill="white"/>
<path d="M132.985 127.389H263.976C265.522 127.391 267.003 128.004 268.096 129.092C269.189 130.181 269.803 131.657 269.806 133.196V185.465C269.803 187.004 269.189 188.48 268.096 189.569C267.003 190.657 265.522 191.27 263.976 191.272H254.718V210.061H254.375C250.647 210.057 247.073 208.58 244.438 205.955C241.802 203.329 240.319 199.768 240.315 196.055V191.272H132.985C131.439 191.27 129.958 190.657 128.865 189.569C127.772 188.48 127.157 187.004 127.155 185.465V133.196C127.157 131.657 127.772 130.181 128.865 129.092C129.958 128.004 131.439 127.391 132.985 127.389ZM127.841 185.465C127.843 186.823 128.385 188.126 129.349 189.086C130.314 190.047 131.621 190.587 132.985 190.589H241.001V196.055C241.006 199.528 242.37 202.862 244.803 205.349C247.236 207.837 250.547 209.281 254.032 209.375V190.589H263.976C265.34 190.587 266.647 190.047 267.611 189.086C268.576 188.126 269.118 186.823 269.12 185.465V133.196C269.118 131.838 268.576 130.536 267.611 129.575C266.647 128.614 265.34 128.074 263.976 128.072H132.985C131.621 128.074 130.314 128.614 129.349 129.575C128.385 130.536 127.843 131.838 127.841 133.196V185.465Z" fill="#3F3D56"/>
<path d="M158.987 140.357H237.974C239.078 140.358 240.139 140.764 240.934 141.489C241.73 142.215 242.198 143.205 242.241 144.251C242.247 144.304 242.249 144.357 242.248 144.41C242.246 145.484 241.795 146.514 240.994 147.274C240.193 148.033 239.107 148.461 237.974 148.462H158.987C157.853 148.462 156.766 148.035 155.964 147.275C155.163 146.515 154.713 145.485 154.713 144.41C154.713 143.335 155.163 142.304 155.964 141.544C156.766 140.784 157.853 140.357 158.987 140.357Z" fill="#E69636"/>
<path d="M158.987 154.946H237.974C239.078 154.947 240.139 155.352 240.934 156.078C241.73 156.804 242.198 157.794 242.241 158.84C242.247 158.893 242.249 158.946 242.248 158.999C242.246 160.073 241.795 161.103 240.994 161.863C240.193 162.622 239.107 163.05 237.974 163.051H158.987C157.853 163.051 156.766 162.624 155.964 161.864C155.163 161.104 154.713 160.073 154.713 158.999C154.713 157.924 155.163 156.893 155.964 156.133C156.766 155.373 157.853 154.946 158.987 154.946Z" fill="#E69636"/>
<path d="M158.987 167.915H237.974C239.078 167.915 240.139 168.321 240.934 169.047C241.73 169.773 242.198 170.762 242.241 171.808C242.247 171.861 242.249 171.914 242.248 171.967C242.246 173.041 241.795 174.071 240.994 174.831C240.193 175.591 239.107 176.018 237.974 176.02H158.987C157.853 176.02 156.766 175.593 155.964 174.833C155.163 174.073 154.713 173.042 154.713 171.967C154.713 170.892 155.163 169.862 155.964 169.102C156.766 168.342 157.853 167.915 158.987 167.915Z" fill="#E69636"/>
<path d="M284.896 244.103C285.05 244.103 285.203 244.093 285.355 244.074C285.879 244.011 286.384 243.839 286.836 243.57C287.289 243.301 287.678 242.941 287.979 242.513C288.28 242.085 288.486 241.599 288.584 241.087C288.681 240.576 288.668 240.049 288.544 239.543C288.515 239.425 288.48 239.309 288.439 239.195L299.807 224.847C300.308 224.211 300.587 223.432 300.603 222.627C300.619 221.821 300.371 221.032 299.896 220.377L295.914 214.924L290.709 218.883L292.8 222.424L284.519 236.734C284.352 236.749 284.187 236.775 284.024 236.813C283.132 237.024 282.35 237.551 281.825 238.293C281.3 239.035 281.07 239.941 281.177 240.84C281.284 241.738 281.722 242.566 282.408 243.168C283.093 243.769 283.979 244.102 284.896 244.103Z" fill="#FFDBC0"/>
<path d="M264.943 313.807L260.549 313.807L258.459 299.218L264.943 299.218L264.943 313.807Z" fill="#FFDBC0"/>
<path d="M252.406 318.154L265.661 318.155L265.661 313.034L257.528 313.033C256.855 313.033 256.189 313.166 255.568 313.423C254.946 313.68 254.382 314.057 253.906 314.533C253.431 315.009 253.054 315.573 252.796 316.194C252.539 316.816 252.406 317.482 252.406 318.154Z" fill="#2F2E41"/>
<path d="M298.983 313.807L295.688 313.807L294.12 299.218L298.983 299.218L298.983 313.807Z" fill="#FFDBC0"/>
<path d="M287.145 318.154L300.399 318.155L300.399 313.034L292.266 313.033C291.593 313.033 290.927 313.166 290.306 313.423C289.685 313.68 289.12 314.057 288.645 314.533C288.169 315.009 287.792 315.573 287.534 316.194C287.277 316.816 287.145 317.482 287.145 318.154Z" fill="#2F2E41"/>
<path d="M297.362 215.753L288.414 219.787L286.23 212.587C285.94 211.63 285.944 210.583 286.241 209.63C286.539 208.678 287.111 207.88 287.856 207.379C288.61 206.872 289.491 206.702 290.341 206.899C291.192 207.096 291.955 207.647 292.492 208.453L297.362 215.753Z" fill="#E69636"/>
<path d="M265.048 300.839C265.433 300.838 265.806 300.715 266.11 300.488C266.414 300.261 266.631 299.944 266.726 299.586C271.532 281.928 276.411 273.077 281.643 262.843C281.774 262.588 281.986 262.379 282.249 262.248C282.512 262.117 282.811 262.069 283.104 262.113C283.397 262.156 283.667 262.288 283.877 262.489C284.086 262.69 284.223 262.951 284.268 263.232L290.753 299.229C290.818 299.63 291.033 299.996 291.357 300.257C291.681 300.518 292.093 300.656 292.516 300.647L302.145 300.422C302.379 300.417 302.609 300.367 302.822 300.275C303.035 300.182 303.226 300.049 303.384 299.884C303.55 299.725 303.678 299.532 303.757 299.32C303.836 299.108 303.864 298.881 303.84 298.657C299.479 271.034 296.045 246.031 289.442 238.403C289.259 238.237 289.049 238.1 288.821 237.997L289.021 237.968C289.078 237.959 289.231 237.937 289.233 237.79L289.234 237.647L289.084 237.62C288.843 237.612 288.603 237.646 288.376 237.722L273.305 239.95C272.888 240.011 272.508 240.217 272.236 240.528C271.965 240.839 271.82 241.234 271.83 241.639C271.01 245.32 269.755 250.877 269.642 251.151C261.601 265.833 258.481 277.394 255.238 297.136C255.171 297.555 255.271 297.982 255.519 298.333C255.766 298.683 256.143 298.931 256.573 299.026L264.655 300.796C264.784 300.824 264.916 300.839 265.048 300.839Z" fill="#2F2E41"/>
<path d="M273.788 242.482C273.928 242.482 274.067 242.465 274.204 242.433L289.577 238.783C289.813 238.728 290.035 238.625 290.229 238.482C290.424 238.338 290.586 238.156 290.708 237.947C290.833 237.731 290.913 237.491 290.943 237.244C290.973 236.996 290.953 236.744 290.883 236.505C289.225 230.768 291.399 223.658 293.995 216.828C294.325 214.831 294.002 212.781 293.073 210.981C292.144 209.182 290.658 207.73 288.837 206.839L288.795 206.819L280.724 207.226C279.398 207.573 278.169 208.215 277.128 209.104C276.087 209.993 275.262 211.106 274.714 212.36C271.603 219.626 270.712 228.951 271.991 240.867C272.038 241.31 272.247 241.72 272.579 242.018C272.911 242.316 273.341 242.481 273.788 242.482Z" fill="#E69636"/>
<path d="M271.883 224.65C272.645 224.652 273.388 224.434 274.008 224.027L279.532 220.392L275.591 215.629L272.033 217.52L257.736 209.906C257.722 209.754 257.696 209.603 257.659 209.454C257.492 208.797 257.117 208.199 256.581 207.738C256.046 207.277 255.375 206.973 254.652 206.864C253.929 206.755 253.188 206.846 252.522 207.126C251.855 207.406 251.294 207.863 250.908 208.437C250.523 209.012 250.331 209.679 250.356 210.355C250.381 211.03 250.623 211.684 251.05 212.232C251.478 212.781 252.072 213.2 252.758 213.437C253.444 213.674 254.19 213.718 254.903 213.563C255.021 213.537 255.137 213.506 255.251 213.468L269.613 223.928C270.261 224.397 271.06 224.652 271.883 224.65Z" fill="#FFDBC0"/>
<path d="M281.754 223.029L273.047 217.302L277.139 211.696C277.682 210.952 278.48 210.417 279.391 210.187C280.303 209.956 281.269 210.045 282.119 210.437C282.98 210.834 283.665 211.515 284.051 212.357C284.438 213.2 284.5 214.149 284.227 215.032L281.754 223.029Z" fill="#E69636"/>
<path d="M285.205 205.198C280.281 205.198 276.29 201.206 276.29 196.282C276.29 191.358 280.281 187.366 285.205 187.366C290.129 187.366 294.121 191.358 294.121 196.282C294.121 201.206 290.129 205.198 285.205 205.198Z" fill="#FFDBC0"/>
<path d="M284.804 204.764C286.079 204.758 287.064 203.441 287.006 202.191C286.949 200.941 286.093 199.841 285.062 199.104C284.031 198.367 282.821 197.919 281.671 197.377C280.521 196.835 279.381 196.16 278.671 195.12C278.242 194.44 277.986 193.668 277.925 192.87C277.863 192.073 277.998 191.272 278.317 190.536C278.978 189.064 280.112 187.845 281.547 187.065C283.678 185.842 286.201 185.45 288.612 185.969C291.024 186.488 293.148 187.88 294.561 189.866L296.018 193.755C297.501 195.506 297.737 198.105 296.825 200.198C295.913 202.292 293.97 203.867 291.779 204.615C289.555 205.316 287.175 205.386 284.912 204.817" fill="#2F2E41"/>
<path d="M294.12 191.979C294.703 191.076 295.498 190.331 296.435 189.809C297.372 189.288 298.423 189.006 299.494 188.988C300.565 188.971 301.624 189.219 302.578 189.71C303.531 190.201 304.35 190.92 304.961 191.804C305.985 193.284 306.356 195.108 307.06 196.766C308.335 199.734 310.653 202.127 313.572 203.486C311.016 203.938 308.47 202.631 306.427 201.024C304.383 199.416 302.586 197.454 300.298 196.224C298.498 195.26 296.475 194.793 294.437 194.871" fill="#2F2E41"/>
<path d="M223.137 318.67H353.755C353.846 318.67 353.933 318.584 353.997 318.432C354.062 318.28 354.098 318.074 354.098 317.859C354.098 317.644 354.062 317.438 353.997 317.286C353.933 317.134 353.846 317.049 353.755 317.049H223.137C223.046 317.049 222.959 317.134 222.895 317.286C222.831 317.438 222.794 317.644 222.794 317.859C222.794 318.074 222.831 318.28 222.895 318.432C222.959 318.584 223.046 318.67 223.137 318.67Z" fill="#3F3D56"/>
<path d="M58.2616 206.819C47.0707 206.819 37.9987 198.11 37.9987 187.367C37.9987 176.624 47.0707 167.915 58.2616 167.915C69.4524 167.915 78.5244 176.624 78.5244 187.367C78.5244 198.11 69.4524 206.819 58.2616 206.819Z" fill="#E6E6E6"/>
<path d="M65.2874 179.397H54.7508C53.7849 179.397 52.9946 180.187 52.9946 181.153V191.69C52.9946 192.656 53.7849 193.446 54.7508 193.446H65.2874C66.2533 193.446 67.0436 192.656 67.0436 191.69V181.153C67.0436 180.187 66.2533 179.397 65.2874 179.397ZM57.824 185.982C57.824 186.711 57.2357 187.299 56.5069 187.299H55.6288V189.056H54.3117V183.787H56.5069C57.2357 183.787 57.824 184.376 57.824 185.104V185.982ZM62.2142 187.739C62.2142 188.467 61.6259 189.056 60.8972 189.056H58.702V183.787H60.8972C61.6259 183.787 62.2142 184.376 62.2142 185.104V187.739ZM65.7265 185.104H64.4094V185.982H65.7265V187.299H64.4094V189.056H63.0923V183.787H65.7265V185.104ZM55.6288 185.982H56.5069V185.104H55.6288V185.982ZM51.2385 182.909H49.4824V195.202C49.4824 196.168 50.2727 196.958 51.2385 196.958H63.5313V195.202H51.2385V182.909ZM60.0191 187.739H60.8972V185.104H60.0191V187.739Z" fill="black" fill-opacity="0.87"/>
</svg>
