<svg width="400" height="262" viewBox="0 0 400 262" fill="none" xmlns="http://www.w3.org/2000/svg">
<g clip-path="url(#clip0_1361_33772)">
<path d="M132.988 127.389H263.979C265.525 127.391 267.006 128.003 268.099 129.092C269.192 130.181 269.806 131.657 269.809 133.196V185.464C269.806 187.004 269.192 188.48 268.099 189.568C267.006 190.657 265.525 191.27 263.979 191.272H254.721V210.061H254.378C250.65 210.057 247.076 208.58 244.441 205.954C241.805 203.328 240.322 199.768 240.318 196.055V191.272H132.988C131.442 191.27 129.961 190.657 128.868 189.568C127.775 188.48 127.16 187.004 127.158 185.464V133.196C127.16 131.657 127.775 130.181 128.868 129.092C129.961 128.003 131.442 127.391 132.988 127.389ZM127.844 185.464C127.846 186.823 128.388 188.125 129.352 189.086C130.317 190.047 131.624 190.587 132.988 190.589H241.004V196.055C241.009 199.528 242.373 202.862 244.806 205.349C247.239 207.836 250.55 209.28 254.035 209.374V190.589H263.979C265.343 190.587 266.65 190.047 267.614 189.086C268.579 188.125 269.121 186.823 269.123 185.464V133.196C269.121 131.838 268.579 130.535 267.614 129.575C266.65 128.614 265.343 128.074 263.979 128.072H132.988C131.624 128.074 130.317 128.614 129.352 129.575C128.388 130.535 127.846 131.838 127.844 133.196V185.464Z" fill="#D9D9D9"/>
<path d="M158.989 140.357H237.976C239.08 140.358 240.141 140.764 240.936 141.49C241.732 142.215 242.2 143.205 242.243 144.251C242.249 144.304 242.251 144.357 242.25 144.41C242.248 145.484 241.797 146.514 240.996 147.274C240.195 148.034 239.109 148.461 237.976 148.463H158.989C157.855 148.463 156.768 148.036 155.966 147.276C155.165 146.516 154.715 145.485 154.715 144.41C154.715 143.335 155.165 142.304 155.966 141.544C156.768 140.784 157.855 140.357 158.989 140.357Z" fill="#D9D9D9"/>
<path d="M158.989 154.945H237.976C239.08 154.946 240.141 155.352 240.936 156.078C241.732 156.803 242.2 157.793 242.243 158.839C242.249 158.892 242.251 158.945 242.25 158.998C242.248 160.072 241.797 161.102 240.996 161.862C240.195 162.621 239.109 163.049 237.976 163.05H158.989C157.855 163.05 156.768 162.623 155.966 161.863C155.165 161.103 154.715 160.073 154.715 158.998C154.715 157.923 155.165 156.892 155.966 156.132C156.768 155.372 157.855 154.945 158.989 154.945Z" fill="#D9D9D9"/>
<path d="M158.989 167.914H237.976C239.08 167.915 240.141 168.32 240.936 169.046C241.732 169.772 242.2 170.762 242.243 171.808C242.249 171.861 242.251 171.914 242.25 171.967C242.248 173.041 241.797 174.071 240.996 174.831C240.195 175.59 239.109 176.018 237.976 176.019H158.989C157.855 176.019 156.768 175.592 155.966 174.832C155.165 174.072 154.715 173.041 154.715 171.967C154.715 170.892 155.165 169.861 155.966 169.101C156.768 168.341 157.855 167.914 158.989 167.914Z" fill="#D9D9D9"/>
<path d="M281.265 248.905C270.074 248.905 261.002 240.196 261.002 229.452C261.002 218.709 270.074 210 281.265 210C292.455 210 301.527 218.709 301.527 229.452C301.527 240.196 292.455 248.905 281.265 248.905Z" fill="#E6E6E6"/>
<path d="M288.287 221.483H277.751C276.785 221.483 275.995 222.273 275.995 223.239V233.775C275.995 234.741 276.785 235.532 277.751 235.532H288.287C289.253 235.532 290.044 234.741 290.044 233.775V223.239C290.044 222.273 289.253 221.483 288.287 221.483ZM280.824 228.068C280.824 228.797 280.236 229.385 279.507 229.385H278.629V231.141H277.312V225.873H279.507C280.236 225.873 280.824 226.461 280.824 227.19V228.068ZM285.214 229.824C285.214 230.553 284.626 231.141 283.897 231.141H281.702V225.873H283.897C284.626 225.873 285.214 226.461 285.214 227.19V229.824ZM288.726 227.19H287.409V228.068H288.726V229.385H287.409V231.141H286.092V225.873H288.726V227.19ZM278.629 228.068H279.507V227.19H278.629V228.068ZM274.239 224.995H272.482V237.288C272.482 238.254 273.273 239.044 274.239 239.044H286.531V237.288H274.239V224.995ZM283.019 229.824H283.897V227.19H283.019V229.824Z" fill="white"/>
</g>
<defs>
<clipPath id="clip0_1361_33772">
<rect width="400" height="262" fill="white"/>
</clipPath>
</defs>
</svg>
