<svg width="400" height="400" viewBox="0 0 400 400" fill="none" xmlns="http://www.w3.org/2000/svg">
<path d="M141.388 47.8943L134.756 49.6047L53.041 70.6773L46.4084 72.3877C43.189 73.2218 40.432 75.2988 38.7421 78.1632C37.0522 81.0275 36.5675 84.4452 37.3943 87.6664L66.1546 199.192C66.9887 202.412 69.0658 205.169 71.9301 206.859C74.7944 208.549 78.2121 209.033 81.4333 208.206L81.4505 208.202L176.396 183.717L176.413 183.713C179.632 182.879 182.39 180.802 184.079 177.938C185.769 175.073 186.254 171.656 185.427 168.434L156.667 56.9084C155.833 53.6891 153.756 50.932 150.891 49.2421C148.027 47.5522 144.609 47.0675 141.388 47.8943Z" fill="#F2F2F2"/>
<path d="M142.291 51.3911L134.435 53.417L55.167 73.8587L47.3113 75.8846C45.0187 76.4785 43.0553 77.9576 41.8519 79.9974C40.6485 82.0371 40.3033 84.4709 40.8922 86.7649L69.6524 198.291C70.2464 200.583 71.7255 202.547 73.7653 203.75C75.805 204.954 78.2388 205.299 80.5328 204.71L80.5499 204.705L175.495 180.221L175.513 180.216C177.805 179.623 179.769 178.143 180.972 176.104C182.175 174.064 182.52 171.63 181.932 169.336L153.171 57.8103C152.577 55.5177 151.098 53.5544 149.059 52.351C147.019 51.1476 144.585 50.8024 142.291 51.3911Z" fill="white"/>
<path d="M136.36 87.5059L88.3292 99.892C87.7928 100.03 87.2233 99.9499 86.7462 99.6684C86.269 99.3869 85.9233 98.9274 85.7849 98.3909C85.6466 97.8545 85.727 97.2851 86.0085 96.8079C86.29 96.3308 86.7496 95.985 87.286 95.8466L135.317 83.4605C135.853 83.3227 136.422 83.4035 136.899 83.685C137.375 83.9666 137.721 84.4259 137.859 84.962C137.997 85.4982 137.917 86.0673 137.636 86.5443C137.355 87.0213 136.896 87.3672 136.36 87.5059Z" fill="#F2F2F2"/>
<path d="M146.463 92.1809L90.089 106.719C89.5525 106.857 88.9831 106.777 88.506 106.495C88.0288 106.214 87.683 105.754 87.5447 105.218C87.4064 104.681 87.4868 104.112 87.7683 103.635C88.0498 103.157 88.5093 102.812 89.0458 102.673L145.42 88.1355C145.956 87.9972 146.526 88.0776 147.003 88.3591C147.48 88.6406 147.826 89.1001 147.964 89.6366C148.103 90.173 148.022 90.7425 147.741 91.2196C147.459 91.6968 147 92.0426 146.463 92.1809Z" fill="#F2F2F2"/>
<path d="M144.249 118.099L96.2179 130.486C95.9523 130.554 95.6758 130.57 95.4042 130.531C95.1325 130.493 94.8711 130.401 94.6349 130.262C94.3986 130.123 94.1921 129.938 94.0272 129.719C93.8622 129.5 93.7421 129.25 93.6736 128.984C93.6051 128.719 93.5896 128.442 93.628 128.171C93.6663 127.899 93.7578 127.638 93.8972 127.401C94.0366 127.165 94.2211 126.959 94.4403 126.794C94.6595 126.629 94.9091 126.509 95.1747 126.44L143.205 114.054C143.471 113.985 143.747 113.97 144.019 114.008C144.291 114.047 144.552 114.138 144.788 114.278C145.025 114.417 145.231 114.602 145.396 114.821C145.561 115.04 145.681 115.289 145.75 115.555C145.818 115.821 145.834 116.097 145.795 116.369C145.757 116.64 145.665 116.902 145.526 117.138C145.387 117.374 145.202 117.581 144.983 117.746C144.764 117.911 144.514 118.031 144.249 118.099Z" fill="#F2F2F2"/>
<path d="M154.352 122.774L97.9777 137.312C97.712 137.38 97.4355 137.396 97.1639 137.358C96.8923 137.319 96.6309 137.228 96.3946 137.088C96.1584 136.949 95.9519 136.764 95.7869 136.545C95.622 136.326 95.5019 136.077 95.4334 135.811C95.3649 135.545 95.3494 135.269 95.3877 134.997C95.4261 134.726 95.5176 134.464 95.657 134.228C95.7963 133.992 95.9809 133.785 96.2001 133.62C96.4193 133.455 96.6688 133.335 96.9344 133.267L153.309 118.729C153.845 118.59 154.415 118.671 154.892 118.952C155.369 119.234 155.715 119.693 155.853 120.23C155.991 120.766 155.911 121.336 155.629 121.813C155.348 122.29 154.888 122.636 154.352 122.774Z" fill="#F2F2F2"/>
<path d="M152.138 148.693L104.107 161.079C103.571 161.217 103.002 161.136 102.525 160.854C102.048 160.573 101.703 160.114 101.564 159.577C101.426 159.041 101.506 158.472 101.787 157.995C102.069 157.518 102.528 157.172 103.064 157.033L151.095 144.647C151.631 144.509 152.2 144.589 152.678 144.871C153.155 145.152 153.501 145.612 153.639 146.148C153.777 146.685 153.697 147.254 153.415 147.731C153.134 148.209 152.674 148.554 152.138 148.693Z" fill="#F2F2F2"/>
<path d="M162.24 153.367L105.866 167.905C105.6 167.974 105.324 167.99 105.052 167.952C104.78 167.913 104.519 167.822 104.282 167.683C104.046 167.543 103.839 167.359 103.674 167.139C103.509 166.92 103.389 166.67 103.32 166.405C103.252 166.139 103.236 165.862 103.274 165.59C103.313 165.319 103.405 165.057 103.544 164.821C103.684 164.584 103.869 164.378 104.088 164.213C104.307 164.048 104.557 163.928 104.823 163.86L161.197 149.322C161.734 149.184 162.303 149.264 162.78 149.546C163.257 149.827 163.603 150.287 163.742 150.823C163.88 151.36 163.799 151.929 163.518 152.406C163.236 152.883 162.777 153.229 162.24 153.367Z" fill="#F2F2F2"/>
<path d="M80.1274 112.592L63.1298 116.976C62.8726 117.042 62.5997 117.003 62.371 116.868C62.1423 116.733 61.9764 116.513 61.9098 116.256L58.0081 101.126C57.942 100.868 57.9807 100.595 58.1157 100.367C58.2506 100.138 58.4708 99.9722 58.7278 99.9056L75.7254 95.5222C75.9826 95.4562 76.2555 95.4949 76.4842 95.6298C76.713 95.7648 76.8788 95.9849 76.9454 96.242L80.8472 111.372C80.9132 111.629 80.8745 111.902 80.7396 112.131C80.6046 112.36 80.3845 112.526 80.1274 112.592Z" fill="#E6E6E6"/>
<path d="M88.018 143.186L71.0205 147.569C70.7632 147.635 70.4903 147.596 70.2616 147.461C70.0329 147.326 69.867 147.106 69.8005 146.849L65.8987 131.719C65.8327 131.462 65.8714 131.189 66.0063 130.96C66.1412 130.732 66.3614 130.566 66.6184 130.499L83.616 126.116C83.8732 126.05 84.1461 126.088 84.3749 126.223C84.6036 126.358 84.7694 126.578 84.836 126.835L88.7378 141.966C88.8038 142.223 88.7651 142.496 88.6302 142.725C88.4953 142.953 88.2751 143.119 88.018 143.186Z" fill="#E6E6E6"/>
<path d="M95.9067 173.779L78.9091 178.162C78.6519 178.228 78.379 178.19 78.1503 178.055C77.9216 177.92 77.7557 177.7 77.6891 177.443L73.7874 162.312C73.7213 162.055 73.76 161.782 73.895 161.553C74.0299 161.325 74.2501 161.159 74.5071 161.092L91.5047 156.709C91.7619 156.643 92.0348 156.682 92.2635 156.817C92.4923 156.952 92.6581 157.172 92.7247 157.429L96.6265 172.559C96.6925 172.816 96.6538 173.089 96.5189 173.318C96.3839 173.547 96.1638 173.712 95.9067 173.779Z" fill="#E6E6E6"/>
<path d="M207.633 76.1648H109.546C106.22 76.1685 103.032 77.4913 100.68 79.8429C98.3285 82.1945 97.0057 85.3829 97.002 88.7086V203.883C97.0057 207.209 98.3285 210.397 100.68 212.749C103.032 215.1 106.22 216.423 109.546 216.427H207.633C210.958 216.423 214.147 215.1 216.498 212.749C218.85 210.397 220.173 207.209 220.177 203.883V88.7086C220.173 85.3829 218.85 82.1945 216.498 79.8429C214.147 77.4913 210.958 76.1685 207.633 76.1648Z" fill="#E6E6E6"/>
<path d="M207.633 79.7759H109.546C107.178 79.7785 104.907 80.7205 103.233 82.3951C101.558 84.0698 100.616 86.3403 100.613 88.7086V203.883C100.616 206.251 101.558 208.522 103.233 210.197C104.907 211.871 107.178 212.813 109.546 212.816H207.633C210.002 212.813 212.272 211.871 213.947 210.197C215.621 208.522 216.563 206.251 216.566 203.883V88.7086C216.563 86.3403 215.621 84.0698 213.947 82.3952C212.272 80.7205 210.002 79.7786 207.633 79.7759Z" fill="white"/>
<path d="M192.871 143.064H143.269C142.994 143.064 142.723 143.01 142.469 142.906C142.215 142.801 141.985 142.647 141.79 142.453C141.596 142.259 141.442 142.029 141.337 141.775C141.232 141.521 141.178 141.25 141.178 140.975C141.178 140.701 141.232 140.429 141.337 140.175C141.442 139.922 141.596 139.691 141.79 139.497C141.985 139.303 142.215 139.149 142.469 139.045C142.723 138.94 142.994 138.886 143.269 138.886H192.871C193.425 138.887 193.955 139.107 194.346 139.499C194.738 139.891 194.957 140.422 194.957 140.975C194.957 141.529 194.738 142.06 194.346 142.451C193.955 142.843 193.425 143.063 192.871 143.064Z" fill="#E6E6E6"/>
<path d="M201.488 150.114H143.269C142.994 150.114 142.723 150.06 142.469 149.955C142.215 149.851 141.985 149.697 141.79 149.503C141.596 149.309 141.442 149.078 141.337 148.825C141.232 148.571 141.178 148.299 141.178 148.025C141.178 147.75 141.232 147.479 141.337 147.225C141.442 146.971 141.596 146.741 141.79 146.547C141.985 146.353 142.215 146.199 142.469 146.094C142.723 145.99 142.994 145.936 143.269 145.936H201.488C202.042 145.936 202.573 146.156 202.965 146.548C203.356 146.94 203.576 147.471 203.576 148.025C203.576 148.579 203.356 149.11 202.965 149.502C202.573 149.894 202.042 150.114 201.488 150.114Z" fill="#E6E6E6"/>
<path d="M192.871 174.658H143.269C142.994 174.659 142.723 174.605 142.469 174.5C142.215 174.395 141.985 174.241 141.79 174.047C141.596 173.853 141.442 173.623 141.337 173.369C141.232 173.116 141.178 172.844 141.178 172.569C141.178 172.295 141.232 172.023 141.337 171.769C141.442 171.516 141.596 171.285 141.79 171.091C141.985 170.897 142.215 170.744 142.469 170.639C142.723 170.534 142.994 170.48 143.269 170.48H192.871C193.425 170.48 193.956 170.701 194.348 171.092C194.74 171.484 194.96 172.015 194.96 172.569C194.96 173.123 194.74 173.655 194.348 174.046C193.956 174.438 193.425 174.658 192.871 174.658Z" fill="#E6E6E6"/>
<path d="M201.488 181.708H143.269C142.994 181.708 142.723 181.655 142.469 181.55C142.215 181.445 141.985 181.291 141.79 181.097C141.596 180.903 141.442 180.673 141.337 180.419C141.232 180.165 141.178 179.894 141.178 179.619C141.178 179.345 141.232 179.073 141.337 178.819C141.442 178.566 141.596 178.335 141.79 178.141C141.985 177.947 142.215 177.793 142.469 177.689C142.723 177.584 142.994 177.53 143.269 177.53H201.488C201.762 177.53 202.034 177.584 202.288 177.689C202.541 177.793 202.772 177.947 202.966 178.141C203.16 178.335 203.314 178.566 203.42 178.819C203.525 179.073 203.579 179.345 203.579 179.619C203.579 179.894 203.525 180.165 203.42 180.419C203.314 180.673 203.16 180.903 202.966 181.097C202.772 181.291 202.541 181.445 202.288 181.55C202.034 181.655 201.762 181.708 201.488 181.708Z" fill="#E6E6E6"/>
<path d="M132.157 153.314H114.603C114.338 153.314 114.083 153.208 113.895 153.021C113.707 152.833 113.602 152.578 113.602 152.313V136.687C113.602 136.422 113.707 136.167 113.895 135.979C114.083 135.792 114.338 135.686 114.603 135.686H132.157C132.422 135.686 132.677 135.792 132.865 135.979C133.053 136.167 133.158 136.422 133.158 136.687V152.313C133.158 152.578 133.053 152.833 132.865 153.021C132.677 153.208 132.422 153.314 132.157 153.314Z" fill="#E6E6E6"/>
<path d="M132.157 184.908H114.603C114.338 184.908 114.083 184.803 113.895 184.615C113.707 184.427 113.602 184.172 113.602 183.907V168.282C113.602 168.016 113.707 167.761 113.895 167.574C114.083 167.386 114.338 167.28 114.603 167.28H132.157C132.422 167.28 132.677 167.386 132.865 167.574C133.053 167.761 133.158 168.016 133.158 168.282V183.907C133.158 184.172 133.053 184.427 132.865 184.615C132.677 184.803 132.422 184.908 132.157 184.908Z" fill="#E6E6E6"/>
<path d="M192.926 107.893H156.356C155.802 107.893 155.271 107.673 154.879 107.282C154.488 106.89 154.268 106.358 154.268 105.804C154.268 105.25 154.488 104.719 154.879 104.327C155.271 103.936 155.802 103.716 156.356 103.716H192.926C193.48 103.716 194.011 103.936 194.403 104.327C194.795 104.719 195.015 105.25 195.015 105.804C195.015 106.358 194.795 106.89 194.403 107.282C194.011 107.673 193.48 107.893 192.926 107.893Z" fill="#CCCCCC"/>
<path d="M201.543 114.943H156.356C156.082 114.943 155.811 114.889 155.557 114.784C155.304 114.679 155.073 114.526 154.879 114.332C154.685 114.138 154.532 113.907 154.427 113.654C154.322 113.4 154.268 113.129 154.268 112.854C154.268 112.58 154.322 112.309 154.427 112.055C154.532 111.802 154.685 111.571 154.879 111.377C155.073 111.183 155.304 111.03 155.557 110.925C155.811 110.82 156.082 110.766 156.356 110.766H201.543C202.097 110.766 202.628 110.986 203.02 111.377C203.411 111.769 203.631 112.3 203.631 112.854C203.631 113.408 203.411 113.94 203.02 114.332C202.628 114.723 202.097 114.943 201.543 114.943Z" fill="#CCCCCC"/>
<path d="M148.262 123.487H114.548C114.283 123.487 114.028 123.381 113.841 123.193C113.653 123.005 113.547 122.751 113.547 122.485V96.1735C113.547 95.9079 113.653 95.6533 113.841 95.4656C114.028 95.2778 114.283 95.1722 114.548 95.1719H148.262C148.528 95.1722 148.783 95.2778 148.97 95.4656C149.158 95.6533 149.264 95.9079 149.264 96.1735V122.485C149.264 122.751 149.158 123.005 148.97 123.193C148.783 123.381 148.528 123.487 148.262 123.487Z" fill="#E69636"/>
<path d="M312.666 289.808C313.859 280.222 319.799 270.777 328.942 267.657C325.336 277.524 325.337 288.348 328.944 298.214C330.349 302.014 332.307 306.095 330.985 309.924C330.163 312.307 328.152 314.131 325.904 315.271C323.655 316.411 321.16 316.954 318.696 317.486L318.211 317.887C314.3 309.055 311.474 299.394 312.666 289.808Z" fill="#F0F0F0"/>
<path d="M329.033 267.839C323.709 273.804 320.4 281.295 319.576 289.248C319.368 290.957 319.431 292.688 319.763 294.378C320.138 296.013 320.945 297.518 322.099 298.736C323.153 299.893 324.364 300.955 325.118 302.348C325.493 303.067 325.712 303.857 325.76 304.666C325.809 305.476 325.686 306.286 325.399 307.045C324.733 308.953 323.422 310.508 322.087 311.985C320.604 313.625 319.038 315.304 318.408 317.477C318.332 317.741 317.927 317.607 318.004 317.344C319.1 313.562 322.771 311.414 324.522 308.008C325.339 306.419 325.681 304.574 324.916 302.896C324.246 301.429 322.998 300.333 321.921 299.171C320.778 297.999 319.939 296.566 319.477 294.995C319.061 293.328 318.932 291.602 319.094 289.892C319.4 286.035 320.309 282.25 321.79 278.676C323.457 274.587 325.812 270.814 328.752 267.519C328.934 267.316 329.214 267.636 329.033 267.839Z" fill="white"/>
<path d="M319.691 286.672C318.375 286.353 317.216 285.576 316.42 284.481C315.625 283.385 315.244 282.043 315.346 280.693C315.368 280.42 315.794 280.441 315.772 280.714C315.674 281.971 316.029 283.222 316.772 284.24C317.515 285.258 318.598 285.977 319.824 286.268C320.091 286.331 319.956 286.735 319.691 286.672Z" fill="white"/>
<path d="M321.488 298.219C323.864 296.8 325.618 294.538 326.401 291.884C326.478 291.621 326.882 291.754 326.805 292.017C325.986 294.778 324.156 297.129 321.68 298.599C321.444 298.74 321.253 298.358 321.488 298.219Z" fill="white"/>
<path d="M323.852 274.99C324.335 275.22 324.868 275.326 325.403 275.299C325.937 275.272 326.456 275.112 326.914 274.835C327.148 274.692 327.338 275.073 327.105 275.215C326.598 275.519 326.025 275.695 325.434 275.726C324.844 275.757 324.255 275.644 323.719 275.395C323.666 275.375 323.623 275.337 323.598 275.287C323.573 275.237 323.567 275.179 323.583 275.126C323.601 275.072 323.639 275.028 323.69 275.003C323.74 274.977 323.798 274.973 323.852 274.99Z" fill="white"/>
<path d="M356.809 284.779C356.665 284.873 356.522 284.966 356.378 285.063C354.452 286.329 352.633 287.75 350.938 289.31C350.805 289.429 350.672 289.551 350.542 289.673C346.498 293.477 343.195 297.998 340.801 303.008C339.85 305.002 339.053 307.066 338.415 309.181C337.535 312.102 336.813 315.34 335.07 317.729C334.891 317.981 334.696 318.221 334.488 318.448H318.738C318.703 318.43 318.667 318.416 318.631 318.398L318.002 318.426C318.027 318.315 318.056 318.2 318.081 318.089C318.095 318.024 318.113 317.959 318.128 317.895C318.138 317.852 318.149 317.808 318.157 317.769C318.16 317.754 318.164 317.74 318.167 317.729C318.174 317.69 318.185 317.654 318.192 317.618C318.351 316.975 318.513 316.332 318.681 315.688C318.681 315.685 318.681 315.685 318.685 315.681C319.975 310.784 321.685 305.951 324.074 301.531C324.146 301.398 324.218 301.261 324.297 301.129C325.385 299.142 326.634 297.248 328.031 295.466C328.799 294.492 329.615 293.558 330.478 292.666C332.71 290.368 335.291 288.435 338.124 286.939C343.773 283.956 350.312 282.814 356.349 284.636C356.504 284.682 356.655 284.729 356.809 284.779Z" fill="#F0F0F0"/>
<path d="M356.773 284.979C348.93 286.537 341.778 290.526 336.332 296.38C335.137 297.619 334.145 299.039 333.392 300.588C332.708 302.12 332.446 303.807 332.634 305.474C332.778 307.032 333.106 308.609 332.869 310.175C332.736 310.975 332.435 311.738 331.987 312.413C331.538 313.089 330.952 313.662 330.266 314.095C328.586 315.218 326.602 315.67 324.647 316.045C322.476 316.462 320.215 316.86 318.403 318.216C318.183 318.38 317.941 318.03 318.16 317.866C321.313 315.507 325.537 316.002 328.985 314.336C330.594 313.559 331.979 312.292 332.378 310.492C332.726 308.917 332.389 307.291 332.23 305.714C332.022 304.09 332.216 302.44 332.793 300.909C333.464 299.327 334.4 297.871 335.56 296.603C338.125 293.708 341.13 291.233 344.465 289.271C348.258 287.01 352.409 285.415 356.74 284.555C357.008 284.501 357.039 284.926 356.773 284.979Z" fill="white"/>
<path d="M337.975 294.392C337.117 293.345 336.659 292.027 336.683 290.673C336.706 289.319 337.211 288.018 338.105 287.002C338.287 286.797 338.614 287.07 338.432 287.275C337.597 288.22 337.128 289.432 337.108 290.692C337.088 291.953 337.52 293.179 338.325 294.149C338.499 294.36 338.148 294.602 337.975 294.392Z" fill="white"/>
<path d="M332.457 304.694C335.208 304.991 337.971 304.241 340.194 302.593C340.414 302.429 340.656 302.779 340.436 302.943C338.12 304.654 335.243 305.429 332.381 305.113C332.108 305.082 332.186 304.664 332.457 304.694Z" fill="white"/>
<path d="M348.331 287.57C348.578 288.045 348.94 288.45 349.383 288.75C349.826 289.05 350.336 289.235 350.869 289.289C351.142 289.316 351.064 289.735 350.793 289.708C350.205 289.646 349.641 289.441 349.151 289.11C348.661 288.78 348.259 288.334 347.981 287.813C347.95 287.766 347.939 287.709 347.949 287.654C347.959 287.599 347.989 287.55 348.034 287.516C348.081 287.485 348.138 287.472 348.193 287.482C348.249 287.493 348.298 287.524 348.331 287.57Z" fill="white"/>
<path d="M261.8 241.412C262.126 241.075 262.374 240.671 262.527 240.228C262.68 239.785 262.734 239.314 262.685 238.848C262.636 238.382 262.485 237.933 262.244 237.531C262.002 237.13 261.676 236.786 261.287 236.524L264.199 225.514L258.589 227.401L256.684 237.567C256.288 238.249 256.156 239.053 256.312 239.826C256.469 240.599 256.904 241.288 257.535 241.762C258.165 242.236 258.948 242.462 259.734 242.397C260.52 242.333 261.255 241.982 261.8 241.412Z" fill="#9E616A"/>
<path d="M287.754 315.369L283.847 315.369L281.988 300.298L287.755 300.298L287.754 315.369Z" fill="#9E616A"/>
<path d="M288.751 319.157L276.152 319.156V318.997C276.152 317.696 276.669 316.449 277.589 315.53C278.508 314.61 279.756 314.093 281.056 314.093L288.752 314.094L288.751 319.157Z" fill="#2F2E41"/>
<path d="M269.268 315.369L265.361 315.369L263.502 300.298L269.269 300.298L269.268 315.369Z" fill="#9E616A"/>
<path d="M270.265 319.157L257.666 319.156V318.997C257.666 317.696 258.183 316.449 259.102 315.53C260.022 314.61 261.269 314.093 262.57 314.093L270.265 314.094L270.265 319.157Z" fill="#2F2E41"/>
<path d="M267.095 224.562L265.595 224.976C265.595 224.976 261.677 250.378 261.358 263.764C261.039 277.149 262.314 310.933 262.314 310.933H270.6L277.293 253.565L280.481 310.933H289.404C289.404 310.933 295.779 235.717 292.91 229.661C290.042 223.606 267.095 224.562 267.095 224.562Z" fill="#2F2E41"/>
<path d="M279.048 179.741C283.183 179.741 286.535 176.388 286.535 172.253C286.535 168.118 283.183 164.766 279.048 164.766C274.913 164.766 271.561 168.118 271.561 172.253C271.561 176.388 274.913 179.741 279.048 179.741Z" fill="#9E616A"/>
<path d="M298.01 189.504L286.388 181.909L274.345 182.383L262.633 188.866L267.095 213.726L265.183 228.068C265.183 228.068 282.393 226.156 286.218 229.024C288.451 230.726 291.085 231.823 293.867 232.211L293.229 207.67L298.01 189.504Z" fill="#3F3D56"/>
<path d="M264.865 188.547L263.661 188.298L262.634 188.866C262.634 188.866 259.766 192.691 259.766 196.197C259.766 199.702 256.26 233.486 256.26 233.486L262.634 236.354L267.733 209.901L264.865 188.547Z" fill="#3F3D56"/>
<path d="M285.606 166.763C285.606 166.763 287.564 163.02 283.256 162.679C283.256 162.679 279.583 159.347 275.839 162.07C275.839 162.07 273.797 162.07 272.681 164.381C272.681 164.381 271.074 163.772 270.722 165.402C270.722 165.402 269.546 168.805 270.722 171.868C271.897 174.931 272.287 175.272 272.287 175.272C272.287 175.272 270.356 168.85 275.056 168.51C279.757 168.169 285.017 165.232 285.409 168.976C285.8 172.719 286.39 173.642 286.39 173.642C286.39 173.642 290.11 168.295 285.606 166.763Z" fill="#2F2E41"/>
<path d="M334.184 319.202H299.527V293.05H334.184V319.202Z" fill="white"/>
<path d="M334.184 319.202H299.527V293.05H334.184V319.202ZM300.165 318.565H333.546V293.688H300.165V318.565Z" fill="#E6E6E6"/>
<path d="M329.614 300.173H304.1V301.874H329.614V300.173Z" fill="#E4E4E4"/>
<path d="M329.614 305.275H304.1V306.976H329.614V305.275Z" fill="#E4E4E4"/>
<path d="M329.614 310.378H304.1V312.079H329.614V310.378Z" fill="#E4E4E4"/>
<path d="M313.138 272.277L287.252 249.234L304.64 229.701L330.526 252.744L313.138 272.277Z" fill="white"/>
<path d="M313.138 272.277L287.252 249.234L304.64 229.701L330.526 252.744L313.138 272.277ZM288.152 249.182L313.086 271.377L329.626 252.796L304.692 230.601L288.152 249.182Z" fill="#E6E6E6"/>
<path d="M303.318 238.06L302.188 239.33L321.245 256.295L322.376 255.024L303.318 238.06Z" fill="#E4E4E4"/>
<path d="M299.926 241.871L298.795 243.142L317.852 260.106L318.983 258.836L299.926 241.871Z" fill="#E4E4E4"/>
<path d="M296.531 245.683L295.4 246.953L314.458 263.917L315.589 262.647L296.531 245.683Z" fill="#E4E4E4"/>
<path d="M363.454 319.5H210.378C210.278 319.5 210.182 319.46 210.111 319.388C210.04 319.317 210 319.221 210 319.12C210 319.02 210.04 318.924 210.111 318.853C210.182 318.781 210.278 318.741 210.378 318.741H363.454C363.555 318.741 363.651 318.781 363.722 318.852C363.794 318.923 363.834 319.02 363.834 319.12C363.834 319.221 363.794 319.318 363.722 319.389C363.651 319.46 363.555 319.5 363.454 319.5Z" fill="#CACACA"/>
<path d="M294.049 241.171C293.82 240.762 293.685 240.308 293.651 239.841C293.617 239.373 293.686 238.904 293.854 238.467C294.021 238.029 294.282 237.633 294.618 237.307C294.955 236.981 295.359 236.733 295.802 236.581L295.821 225.191L300.756 228.458L299.982 238.772C300.189 239.534 300.11 240.344 299.76 241.051C299.409 241.758 298.812 242.311 298.081 242.607C297.349 242.903 296.535 242.92 295.792 242.655C295.049 242.391 294.428 241.863 294.049 241.171Z" fill="#9E616A"/>
<path d="M294.504 190.778L296.709 188.653L298.329 189.822C298.329 189.822 299.923 191.735 301.197 197.471C302.472 203.208 301.197 234.761 301.197 234.761L294.186 233.805L295.142 217.232L292.273 203.208L294.504 190.778Z" fill="#3F3D56"/>
</svg>
