<svg width="1589" height="384" viewBox="0 0 1589 384" fill="none" xmlns="http://www.w3.org/2000/svg">
<g clip-path="url(#clip0_2282_21364)">
<path d="M525.706 59.4184C525.706 51.1473 526.011 19.4007 526.132 11.0687H525.706C523.999 15.0219 514.004 34.3617 512.054 38.1932L493.466 74.0146H486.275L467.687 38.1932C465.737 34.4226 455.742 15.0219 453.913 11.0687H453.609C453.731 19.3399 454.035 51.0865 454.035 59.4184V95.2398H445.32V0H457.144L489.688 62.9458H489.992L522.537 0H534.482V95.2398H525.767V59.4184H525.706Z" fill="white"/>
<path d="M568.794 11.6769H559.652V0H568.794V11.6769ZM568.245 95.3006H560.201V23.5971H568.245V95.2398V95.3006Z" fill="white"/>
<path d="M632.723 93.2933C628.945 94.9962 622.424 96.2125 616.695 96.2125C602.312 96.2125 598.533 90.739 598.533 73.5885V30.165H585.613V24.6915L599.265 23.4143L601.215 7.54102H606.822L606.7 23.5359H631.504V30.165H606.578V73.8926C606.578 85.3871 607.858 89.3402 618.828 89.3402C623.216 89.3402 629.554 87.9414 632.784 86.2385V93.2933H632.723Z" fill="white"/>
<path d="M687.633 93.2933C683.855 94.9962 677.334 96.2125 671.605 96.2125C657.222 96.2125 653.444 90.739 653.444 73.5885V30.165H640.523V24.6915L654.175 23.4143L656.125 7.54102H661.732L661.61 23.5359H686.414V30.165H661.488V73.8926C661.488 85.3871 662.768 89.3402 673.738 89.3402C678.126 89.3402 684.464 87.9414 687.694 86.2385V93.2933H687.633Z" fill="white"/>
<path d="M707.747 60.2703C707.869 71.5215 709.88 79.2452 714.634 83.989C718.595 87.9421 724.75 89.5842 732.673 89.5842C738.89 89.5842 746.02 89.0368 753.516 86.2392V93.294C747.178 95.6659 738.158 96.5173 731.576 96.5173C709.332 96.5173 699.215 85.3878 699.215 59.4188C699.215 33.4499 711.343 22.3203 729.626 22.3203C748.945 22.3203 756.502 32.7201 756.502 51.9383C756.502 53.033 756.381 56.9861 755.954 60.2094H707.808L707.747 60.2703ZM714.634 34.3013C710.855 38.072 708.6 44.397 707.869 53.702H748.397C748.519 51.8775 748.519 51.1477 748.519 50.4787C748.519 43.059 747.117 37.2814 743.582 33.754C740.474 30.6523 735.72 29.1318 729.382 29.1318C723.593 29.1318 718.412 30.5306 714.573 34.3013H714.634Z" fill="white"/>
<path d="M784.904 95.2398H776.859V0H784.904V95.2398Z" fill="white"/>
<path d="M850.234 75.2927C850.234 63.4941 842.067 62.7643 832.072 62.521C820.798 62.0953 806.902 61.1222 806.902 41.8432C806.902 26.274 820.432 22.1992 834.327 22.1992C838.959 22.1992 846.882 22.7466 852.915 24.5711V31.4434C846.455 29.4973 839.386 29.0716 834.023 29.0716C823.175 29.0716 815.008 32.2949 815.008 41.8432C815.008 53.6417 823.479 54.0674 833.291 54.4932C845.541 55.0405 858.339 56.4393 858.339 74.9886C858.339 91.166 843.286 96.4571 828.781 96.4571C823.418 96.4571 813.18 95.484 806.963 93.2337V85.9357C813.728 88.1859 822.87 89.2806 828.903 89.2806C841.702 89.2806 850.173 85.3275 850.173 75.2318L850.234 75.2927Z" fill="white"/>
<path d="M916.114 93.2933C912.335 94.9962 905.814 96.2125 900.086 96.2125C885.703 96.2125 881.924 90.739 881.924 73.5885V30.165H869.004V24.6915L882.655 23.4143L884.606 7.54102H890.213L890.091 23.5359H914.895V30.165H889.969V73.8926C889.969 85.3871 891.249 89.3402 902.219 89.3402C906.607 89.3402 912.945 87.9414 916.175 86.2385V93.2933H916.114Z" fill="white"/>
<path d="M972 54.2494V43.5455C972 30.4698 966.82 29.071 953.412 29.071C948.232 29.071 940.005 29.6184 931.838 31.4429V24.5705C939.03 22.746 948.903 22.3203 954.509 22.3203C971.818 22.3203 979.984 25.8477 979.984 42.9982V95.2402H974.073L973.097 87.638H972.975C966.515 93.2332 958.897 96.3349 950.182 96.3349C942.991 96.3349 936.104 94.3887 931.899 90.1315C928.364 86.6041 926.414 81.4347 926.414 75.2313C926.414 68.359 928.242 63.7368 931.594 60.3311C937.201 54.8575 946.952 53.5804 958.349 53.5804C961.152 53.5804 967.064 53.8845 972 54.1277V54.2494ZM972 60.8784C967.064 60.3311 961.701 60.1486 958.897 60.1486C947.501 60.1486 941.894 61.1217 938.054 64.9532C935.921 67.0818 934.824 70.3051 934.824 75.4746C934.824 85.8743 942.138 89.4017 951.462 89.4017C960.787 89.4017 967.247 85.8743 972 80.4008V60.8784Z" fill="white"/>
<path d="M1011 33.9964C1019.05 25.7253 1028.43 22.502 1038.61 22.502C1056.1 22.502 1060.55 30.2257 1060.55 44.8219V95.2394H1052.51V46.3423C1052.51 34.2397 1048.97 29.4959 1036.91 29.4959C1027.34 29.4959 1018.32 33.6923 1011.86 42.0243V95.3002H1003.81V23.5967H1009.85L1010.82 33.9964H1010.94H1011Z" fill="white"/>
<path d="M1109.13 96.3953C1089.69 96.3953 1080.12 85.0225 1080.12 59.4184C1080.12 33.8144 1091.64 22.4416 1112.36 22.4416C1119.12 22.4416 1126.86 23.7187 1131.37 27.2461V0H1139.42V95.2398H1133.38L1132.53 86.3605H1132.41C1125.76 93.5369 1117.48 96.3345 1109.19 96.3345L1109.13 96.3953ZM1131.37 35.1524C1127.17 30.956 1120.4 29.3747 1113.21 29.3747C1097.85 29.3747 1088.41 37.0985 1088.41 59.4184C1088.41 81.7384 1095.72 89.4621 1110.53 89.4621C1118.57 89.4621 1125.46 85.8131 1131.37 78.211V35.0915V35.1524Z" fill="white"/>
<path d="M1199.2 60.5743H1156.97V53.5195H1199.2V60.5743Z" fill="white"/>
<path d="M1276.05 85.9956C1269.29 92.7463 1261.43 95.2398 1249.3 95.2398H1217.48V0H1249.3C1261.43 0 1269.41 2.37187 1276.05 9.12258C1283.67 16.7247 1287.57 29.1923 1287.57 47.6199C1287.57 66.0475 1283.61 78.3934 1276.05 85.9956ZM1269.17 13.8055C1263.92 8.63605 1257.77 7.0548 1249.05 7.0548H1226.38V88.2458H1249.05C1257.77 88.2458 1263.98 86.5429 1269.17 81.3735C1275.2 75.3526 1278.43 64.223 1278.43 47.6807C1278.43 31.1384 1275.08 19.8872 1269.17 13.8055Z" fill="white"/>
<path d="M1317.19 11.6769H1308.05V0H1317.19V11.6769ZM1316.64 95.3006H1308.6V23.5971H1316.64V95.2398V95.3006Z" fill="white"/>
<path d="M1395.75 92.8678C1395.75 117.012 1378.32 120.236 1364.79 120.236C1357.59 120.236 1348.57 119.08 1342.24 117.012V109.714C1348.15 111.66 1355.46 113.059 1363.93 113.059C1376.61 113.059 1387.7 109.714 1387.7 93.6584V81.0084H1387.58C1381.36 87.7591 1373.93 90.6783 1366.19 90.6783C1347.48 90.6783 1337.73 80.2786 1337.73 56.5599C1337.73 32.8412 1349.25 22.4414 1369.42 22.4414C1375.63 22.4414 1383.5 23.8402 1388.98 28.3407H1389.1L1390.08 23.5361H1395.68V92.8069L1395.75 92.8678ZM1387.7 35.2738C1383.62 31.1991 1377.16 29.3746 1370.21 29.3746C1355.4 29.3746 1346.01 36.4294 1346.01 56.6207C1346.01 76.812 1353.21 83.8668 1367.28 83.8668C1375.02 83.8668 1382.22 79.7921 1387.7 72.1899V35.213V35.2738Z" fill="white"/>
<path d="M1429.39 11.6769H1420.25V0H1429.39V11.6769ZM1428.84 95.3006H1420.79V23.5971H1428.84V95.2398V95.3006Z" fill="white"/>
<path d="M1493.32 93.2933C1489.54 94.9962 1483.02 96.2125 1477.29 96.2125C1462.91 96.2125 1459.13 90.739 1459.13 73.5885V30.165H1446.21V24.6915L1459.86 23.4143L1461.81 7.54102H1467.42L1467.29 23.5359H1492.1V30.165H1467.17V73.8926C1467.17 85.3871 1468.45 89.3402 1479.42 89.3402C1483.81 89.3402 1490.15 87.9414 1493.38 86.2385V93.2933H1493.32Z" fill="white"/>
<path d="M1549.2 54.2494V43.5455C1549.2 30.4698 1544.02 29.071 1530.62 29.071C1525.44 29.071 1517.21 29.6184 1509.04 31.4429V24.5705C1516.23 22.746 1526.11 22.3203 1531.71 22.3203C1549.02 22.3203 1557.19 25.8477 1557.19 42.9982V95.2402H1551.28L1550.3 87.638H1550.18C1543.72 93.2332 1536.1 96.3349 1527.39 96.3349C1520.19 96.3349 1513.31 94.3887 1509.1 90.1315C1505.57 86.6041 1503.62 81.4347 1503.62 75.2313C1503.62 68.359 1505.45 63.7368 1508.8 60.3311C1514.4 54.8575 1524.16 53.5804 1535.55 53.5804C1538.36 53.5804 1544.27 53.8845 1549.2 54.1277V54.2494ZM1549.2 60.8784C1544.27 60.3311 1538.9 60.1486 1536.1 60.1486C1524.7 60.1486 1519.1 61.1217 1515.26 64.9532C1513.12 67.0818 1512.03 70.3051 1512.03 75.4746C1512.03 85.8743 1519.34 89.4017 1528.67 89.4017C1537.99 89.4017 1544.45 85.8743 1549.2 80.4008V60.8784Z" fill="white"/>
<path d="M1589 95.2398H1580.96V0H1589V95.2398Z" fill="white"/>
<path d="M442.944 238.16V224.659L488.957 158.185V157.881H446.722V142.859H512.725V156.482L466.712 222.773V223.077H513.152V238.099H442.883L442.944 238.16Z" fill="white"/>
<path d="M544.052 206.536C544.052 212.739 544.905 217.909 548.562 221.558C552.097 225.085 557.155 226.18 565.2 226.18C570.38 226.18 580.558 225.207 587.566 223.382V236.701C580.375 238.83 569.527 240.35 561.543 240.35C534.789 240.35 524.367 227.822 524.367 202.279C524.367 173.208 540.7 164.207 559.41 164.207C580.923 164.207 590.675 174.485 590.675 194.981C590.675 197.535 590.37 203.13 589.943 206.475H544.052V206.536ZM548.867 181.418C546.185 184.094 544.905 188.169 544.479 193.764H572.94C573.062 191.94 573.062 190.967 573.062 190.845C573.062 186.649 572.087 183.243 569.953 181.175C567.577 178.803 564.042 177.952 559.959 177.952C555.875 177.952 551.487 178.803 548.806 181.479L548.867 181.418Z" fill="white"/>
<path d="M650.887 164.814C668.743 164.814 675.508 171.444 675.508 187.134V238.16H656.92V190.54C656.92 182.269 654.117 179.593 645.767 179.593C638.881 179.593 631.141 183.668 626.936 188.837V238.16H608.348V166.517H621.268L623.828 175.944H624.132C632.177 167.794 641.623 164.814 650.887 164.814Z" fill="white"/>
<path d="M740.719 236.762C735.112 239.013 726.946 239.56 722.009 239.56C705.371 239.56 699.643 234.086 699.643 214.138V180.02H687.941V168.1L701.288 166.397L705.92 150.523H718.292V166.518H740.414V180.02H718.17V213.713C718.17 223.687 721.156 224.964 728.713 224.964C731.09 224.964 737.002 224.416 740.658 223.443V236.762H740.719Z" fill="white"/>
<path d="M789.534 164.998C792.886 164.998 796.969 165.424 799.65 167.127V181.175C796.298 180.081 792.459 179.898 791.057 179.898C781.367 179.898 776.857 185.068 773.322 191.149V238.222H754.734V166.579H767.655L770.336 176.675H770.458C774.237 170.228 780.148 164.998 789.473 164.998H789.534Z" fill="white"/>
<path d="M834.328 239.863C816.472 239.863 809.707 232.565 809.707 216.814V166.518H828.295V214.138C828.295 222.409 831.098 225.085 839.387 225.085C846.274 225.085 854.014 221.01 858.28 215.78V166.457H876.868V238.1H863.947L861.388 228.673H861.083C853.038 236.823 843.592 239.803 834.328 239.803V239.863Z" fill="white"/>
<path d="M959.875 175.093C967.066 167.673 975.355 164.814 983.643 164.814C1000.52 164.814 1006.86 171.444 1006.86 187.134V238.16H988.275V190.54C988.275 182.269 985.898 179.593 978.585 179.593C972.368 179.593 965.604 183.668 961.825 188.837V238.16H943.237V190.54C943.237 182.269 940.86 179.593 933.547 179.593C927.331 179.593 920.566 183.668 916.787 188.837V238.16H898.199V166.517H911.119L913.679 175.944H913.984C921.297 167.794 930.012 164.814 938.605 164.814C950.124 164.814 956.645 168.038 959.57 175.093H959.875Z" fill="white"/>
<path d="M237.742 313.27C237.742 306.824 232.5 301.654 226.101 301.654C219.702 301.654 214.461 306.885 214.461 313.27C214.461 319.656 219.702 324.886 226.101 324.886C232.5 324.886 237.742 319.656 237.742 313.27Z" fill="white"/>
<path d="M309.231 222.226L254.808 271.792H181.614C178.323 282.861 168.145 291.01 155.956 291.01C141.147 291.01 129.08 278.969 129.08 264.19C129.08 249.411 141.147 237.37 155.956 237.37C168.145 237.37 178.323 245.519 181.614 256.588H248.896L303.32 207.022H382.06V173.694H181.675C178.384 184.763 168.206 192.912 156.017 192.912C141.208 192.912 129.141 180.87 129.141 166.092C129.141 151.313 141.208 139.271 156.017 139.271C168.206 139.271 178.384 147.421 181.675 158.49H382.06V125.162H303.32L248.896 75.5958H181.614C178.323 86.6646 168.145 94.8141 155.956 94.8141C141.147 94.8141 129.08 82.7723 129.08 67.9937C129.08 53.2151 141.147 41.1733 155.956 41.1733C168.145 41.1733 178.323 49.3228 181.614 60.3915H254.808L309.231 109.958H382.06V0H120.913C54.1185 0 0 54.0665 0 120.661V159.037H72.8284L127.252 109.471H200.446C203.737 98.4023 213.914 90.2528 226.103 90.2528C240.913 90.2528 252.98 102.295 252.98 117.073C252.98 131.852 240.913 143.894 226.103 143.894C213.914 143.894 203.737 135.744 200.446 124.675H133.163L78.74 174.241H0V207.569H200.385C203.676 196.5 213.853 188.351 226.042 188.351C240.852 188.351 252.919 200.393 252.919 215.171C252.919 229.95 240.852 241.992 226.042 241.992C213.853 241.992 203.676 233.842 200.385 222.774H0V256.101H78.74L133.163 305.667H200.446C203.737 294.599 213.914 286.449 226.103 286.449C240.913 286.449 252.98 298.491 252.98 313.27C252.98 328.048 240.913 340.09 226.103 340.09C213.914 340.09 203.737 331.94 200.446 320.872H127.252L72.8284 271.306H0.548498C5.97254 332.914 57.7752 381.263 120.913 381.263H261.085C327.88 381.263 381.999 327.258 381.999 260.602V222.226H309.17H309.231Z" fill="white"/>
<path d="M237.683 215.171C237.683 208.724 232.442 203.555 226.043 203.555C219.644 203.555 214.402 208.785 214.402 215.171C214.402 221.557 219.644 226.787 226.043 226.787C232.442 226.787 237.683 221.557 237.683 215.171Z" fill="white"/>
<path d="M144.379 166.093C144.379 172.539 149.62 177.709 156.019 177.709C162.418 177.709 167.66 172.478 167.66 166.093C167.66 159.707 162.418 154.477 156.019 154.477C149.62 154.477 144.379 159.707 144.379 166.093Z" fill="white"/>
<path d="M144.316 264.19C144.316 270.637 149.558 275.806 155.957 275.806C162.356 275.806 167.597 270.576 167.597 264.19C167.597 257.805 162.356 252.574 155.957 252.574C149.558 252.574 144.316 257.805 144.316 264.19Z" fill="white"/>
<path d="M144.316 67.993C144.316 74.4397 149.558 79.6091 155.957 79.6091C162.356 79.6091 167.597 74.3789 167.597 67.993C167.597 61.6072 162.356 56.377 155.957 56.377C149.558 56.377 144.316 61.6072 144.316 67.993Z" fill="white"/>
<path d="M237.742 117.073C237.742 110.626 232.5 105.457 226.101 105.457C219.702 105.457 214.461 110.687 214.461 117.073C214.461 123.459 219.702 128.689 226.101 128.689C232.5 128.689 237.742 123.459 237.742 117.073Z" fill="white"/>
<path d="M464.883 381.75H445.441V286.51H509.25V301.532H464.883V325.676H502.059V340.698H464.883V381.75Z" fill="white"/>
<path d="M550.085 384.001C529.363 384.001 513.457 375.729 513.457 345.929C513.457 316.129 529.363 307.857 550.085 307.857C570.806 307.857 586.712 316.129 586.712 345.929C586.712 375.729 570.806 384.001 550.085 384.001ZM538.688 366.728C541.491 369.526 545.453 370.499 550.085 370.499C554.716 370.499 558.678 369.526 561.481 366.728C565.138 363.079 566.844 356.633 566.844 345.929C566.844 335.225 565.138 328.779 561.481 325.13C558.678 322.332 554.716 321.359 550.085 321.359C545.453 321.359 541.491 322.332 538.688 325.13C535.031 328.779 533.325 335.225 533.325 345.929C533.325 356.633 535.031 363.079 538.688 366.728Z" fill="white"/>
<path d="M646.375 343.131L672.825 381.75H651.129L630.712 350.976H622.424V381.75H603.836V286.51H622.424V337.11H630.712L648.752 310.107H669.168L646.375 343.131Z" fill="white"/>
<path d="M707.321 383.453C689.464 383.453 682.699 376.155 682.699 360.403V310.107H701.287V357.727C701.287 365.998 704.091 368.674 712.44 368.674C719.327 368.674 727.067 364.6 731.333 359.43V310.107H749.921V381.75H736.94L734.38 372.323H734.075C726.031 380.473 716.645 383.453 707.321 383.453Z" fill="white"/>
<path d="M809.951 361.255C809.951 354.079 804.466 353.41 794.593 353.227C779.54 352.923 766.559 349.274 766.559 330.481C766.559 314.182 780.332 307.857 799.529 307.857C803.735 307.857 815.984 308.709 821.896 310.655V324.156C813.729 322.21 803.856 321.785 799.773 321.785C790.632 321.785 785.147 324.156 785.147 329.204C785.147 336.928 791.485 336.502 799.651 336.806C813.608 337.232 828.356 340.334 828.356 359.735C828.356 376.034 813.851 384.061 792.46 384.061C788.255 384.061 777.224 383.21 767.838 380.412V366.242C776.432 368.371 787.402 369.344 792.216 369.344C803.735 369.344 809.951 366.668 809.951 361.316V361.255Z" fill="white"/>
<path d="M920.199 363.93L904.597 331.636C900.94 323.912 897.71 315.763 894.602 305.667H894.175C895.333 322.27 895.882 328.595 895.882 345.867V381.81H877.172V286.57H902.647L927.146 339.116H927.573L952.072 286.57H977.547V381.81H958.533V345.867C958.533 328.595 959.081 322.27 960.239 305.667H959.812C956.704 315.763 953.474 323.912 949.818 331.636L934.216 363.93H920.26H920.199Z" fill="white"/>
<path d="M1015.02 350.186C1015.02 356.39 1015.88 361.559 1019.53 365.208C1023.07 368.735 1028.13 369.83 1036.17 369.83C1041.35 369.83 1051.53 368.857 1058.54 367.033V380.352C1051.35 382.48 1040.5 384.001 1032.52 384.001C1005.76 384.001 995.34 371.472 995.34 345.929C995.34 316.858 1011.67 307.857 1030.38 307.857C1051.9 307.857 1061.65 318.136 1061.65 338.631C1061.65 341.185 1061.34 346.78 1060.92 350.125H1015.02V350.186ZM1019.84 325.069C1017.16 327.745 1015.88 331.819 1015.45 337.415H1043.91C1044.03 335.59 1044.03 334.617 1044.03 334.435C1044.03 330.238 1043.06 326.832 1040.93 324.765C1038.55 322.393 1035.01 321.541 1030.93 321.541C1026.85 321.541 1022.46 322.393 1019.84 325.069Z" fill="white"/>
<path d="M1121.92 308.404C1139.78 308.404 1146.55 315.033 1146.55 330.724V381.75H1127.96V334.13C1127.96 325.859 1125.15 323.183 1116.8 323.183C1109.92 323.183 1102.18 327.258 1097.91 332.488V381.811H1079.32V310.168H1092.31L1094.86 319.595H1095.17C1103.21 311.445 1112.6 308.465 1121.92 308.465V308.404Z" fill="white"/>
<path d="M1205.42 361.255C1205.42 354.079 1199.93 353.41 1190.06 353.227C1175 352.923 1162.02 349.274 1162.02 330.481C1162.02 314.182 1175.8 307.857 1194.99 307.857C1199.2 307.857 1211.45 308.709 1217.36 310.655V324.156C1209.19 322.21 1199.32 321.785 1195.24 321.785C1186.1 321.785 1180.61 324.156 1180.61 329.204C1180.61 336.928 1186.95 336.502 1195.12 336.806C1209.07 337.232 1223.82 340.334 1223.82 359.735C1223.82 376.034 1209.32 384.061 1187.92 384.061C1183.72 384.061 1172.69 383.21 1163.3 380.412V366.242C1171.9 368.371 1182.87 369.344 1187.68 369.344C1199.2 369.344 1205.42 366.668 1205.42 361.316V361.255Z" fill="white"/>
<path d="M1292.81 366.059V380.412C1284.64 383.088 1276.78 384.061 1271.3 384.061C1245.39 384.061 1234.55 371.837 1234.55 345.99C1234.55 326.163 1240.34 307.918 1272.39 307.918C1276.78 307.918 1284.34 308.465 1291.29 310.716V324.217C1285.8 322.818 1278.91 322.088 1274.65 322.088C1267.64 322.088 1262.7 323.061 1259.29 326.467C1256.06 329.691 1254.35 337.293 1254.35 345.99C1254.35 354.686 1256.06 361.437 1259.29 364.66C1262.52 367.884 1267.58 369.039 1274.65 369.039C1278 369.039 1285.62 368.309 1292.81 366.059Z" fill="white"/>
<path d="M1308.29 286.51H1326.88V316.736H1327.18C1334.62 310.715 1342.79 308.465 1350.83 308.465C1368.69 308.465 1375.45 315.094 1375.45 330.785V381.81H1356.86V334.19C1356.86 325.919 1354.06 323.243 1345.71 323.243C1338.82 323.243 1331.08 327.318 1326.82 332.548V381.871H1308.23V286.631L1308.29 286.51Z" fill="white"/>
</g>
<defs>
<clipPath id="clip0_2282_21364">
<rect width="1589" height="384" fill="white"/>
</clipPath>
</defs>
</svg>
